<?xml version="1.0" standalone="no"?>
<!DOCTYPE svg PUBLIC "-//W3C//DTD SVG 20010904//EN"
 "http://www.w3.org/TR/2001/REC-SVG-20010904/DTD/svg10.dtd">
<svg version="1.0" xmlns="http://www.w3.org/2000/svg"
 width="612.000000pt" height="640.000000pt" viewBox="0 0 612.000000 640.000000"
 preserveAspectRatio="xMidYMid meet">

<g transform="translate(0.000000,640.000000) scale(0.100000,-0.100000)"
fill="#000000" stroke="none">
<path d="M2150 5945 l0 -455 139 0 c77 0 145 -2 153 -5 11 -5 13 -145 10 -838
l-3 -832 -25 -90 c-130 -463 -547 -805 -1134 -930 -117 -25 -152 -28 -550 -39
l-424 -11 -43 -135 c-143 -445 -265 -1090 -251 -1320 l3 -55 50 -7 c135 -21
439 -84 600 -125 839 -210 1556 -521 2202 -954 96 -64 172 -109 187 -109 14 0
93 46 193 113 388 260 739 445 1180 623 486 196 1068 360 1573 444 41 7 81 19
89 26 13 12 13 35 3 167 -21 259 -80 591 -157 882 -35 133 -130 444 -138 451
-2 2 -156 7 -343 10 -521 8 -634 22 -883 109 -488 170 -838 544 -891 949 -7
50 -12 386 -13 876 l-2 795 153 3 152 3 0 454 0 455 -915 0 -915 0 0 -455z"/>
</g>
</svg>
